
        <svg xmlns="http://www.w3.org/2000/svg" xmlns:xlink="http://www.w3.org/1999/xlink" version="1.1" width="3214.285714285714" height="2684.4235625123843" viewBox="0 0 3214.285714285714 2684.4235625123843">
			
			<g transform="scale(10.714285714285714) translate(10, 10)">
				<defs id="SvgjsDefs2132"/><g id="SvgjsG2133" featureKey="mugSzh-0" transform="matrix(1.6111108379599952,0,0,1.6111108379599952,59.94446424790035,-11.922219586313954)" fill="#000"><g xmlns="http://www.w3.org/2000/svg" display="none"><path display="inline" stroke="#15eda3" stroke-width="3" stroke-linecap="round" stroke-linejoin="round" d="M50,91   C26,69.5,6.5,48.7,6.5,32.5C6.5,15.3,16.9,9,27.9,9C39.2,9,50,23.1,50,23.1S60.8,9,72.1,9c11,0,21.4,6.3,21.4,23.5   C93.5,53.9,71.8,72.8,50,91z"/></g><g xmlns="http://www.w3.org/2000/svg" display="none"><path display="inline" stroke="#15eda3" stroke-width="6" stroke-linecap="round" stroke-linejoin="round" d="M50,89.6   C26.9,68.8,8,48.8,8,33.1c0-16.6,10-22.7,20.7-22.7C39.6,10.4,50,24,50,24s10.4-13.6,21.3-13.6C82,10.4,92,16.5,92,33.1   C92,53.8,71.1,72,50,89.6z"/></g><g xmlns="http://www.w3.org/2000/svg" display="none"><path display="inline" d="M50,5C25.2,5,5,25.2,5,50c0,12.3,5,23.5,13,31.6c0.1,0.1,0.1,0.1,0.2,0.2c0.1,0.1,0.1,0.1,0.2,0.2   c8.1,8,19.3,13,31.6,13c12.3,0,23.5-5,31.6-13c0.1-0.1,0.1-0.1,0.2-0.2c0.1-0.1,0.1-0.1,0.2-0.2c8-8.1,13-19.3,13-31.6   C95,25.2,74.8,5,50,5z M29.7,72.7L48,54.3v35C41,83.7,35,78.2,29.7,72.7z M29.8,20.3C38,20.3,46,29.8,48,32v17.3L27.3,70.1   c-9.2-9.9-15.1-19.7-15.1-30.2C12.2,22.2,24.5,20.3,29.8,20.3z M52,54.3l18.3,18.3C65,78.2,59,83.7,52,89.3V54.3z M52,49.3V32   c2-2.2,9.9-11.6,18.2-11.6c5.3,0,17.6,1.9,17.6,19.6c0,10.4-5.9,20.3-15,30.2L52,49.3z M75.4,17.3c-1.7-0.3-3.3-0.5-5.2-0.5   c-7.4,0-14.2,5.8-18.2,9.9V8.6C61,9,68.8,12.2,75.4,17.3z M48,26.6c-4-4-10.8-9.9-18.2-9.9c-1.8,0-3.6,0.2-5.3,0.5   C31.1,12.2,39,9,48,8.6V26.6z M8.6,50c0-1.9,0.1-3.8,0.4-5.6c1.1,7.8,5.2,15.8,12.4,24.4c1.1,1.3,2.2,2.6,3.4,3.8L19.5,78   C12.7,70.6,8.6,60.8,8.6,50z M27.3,75.2c5.2,5.4,11.2,10.6,17.3,15.8C36,89.9,28.2,86.1,22,80.5L27.3,75.2z M55.4,91   c6.2-5.2,12.1-10.4,17.3-15.8l5.3,5.3C71.8,86.1,64,89.9,55.4,91z M80.5,78l-5.3-5.3c1.2-1.3,2.3-2.6,3.4-3.8   c7.2-8.6,11.3-16.6,12.4-24.4c0.3,1.8,0.4,3.7,0.4,5.6C91.4,60.8,87.3,70.6,80.5,78z"/></g><g xmlns="http://www.w3.org/2000/svg" display="none"><path display="inline" d="M84.8,22c-3.7-3.5-8.8-5.3-14.7-5.3c-8.7,0-16.9,8.1-20.1,11.8c-3.2-3.7-11.3-11.8-20.1-11.8   c-5.9,0-11,1.8-14.7,5.3c-4.3,4.1-6.5,10.1-6.5,17.8c0,9.2,4.2,18.7,12.8,28.9c2.3,2.7,4.8,5.4,7.5,8.1c0,0,0,0,0,0.1   c0,0,0.1,0,0.1,0.1c6,5.9,12.8,11.7,19.8,17.6c0.3,0.3,0.7,0.4,1.2,0.4c0.4,0,0.8-0.1,1.2-0.4C58.2,88.7,65,82.9,71,77   c0,0,0.1,0,0.1-0.1c0,0,0,0,0-0.1c2.7-2.7,5.2-5.3,7.5-8.1c8.6-10.2,12.8-19.7,12.8-28.9C91.3,32.1,89.1,26.1,84.8,22z M69.7,72.9   L52,55.1V33C65,34,74.9,44.7,74.9,57.8C74.9,63.5,73,68.7,69.7,72.9z M67.4,75.6c-4.1,3.9-9.4,6.5-15.4,6.9V60.2L67.4,75.6z    M30.3,72.9c-3.3-4.2-5.2-9.5-5.2-15.2C25.1,44.7,35,34,48,33v22.1L30.3,72.9z M48,60.2v22.3c-6-0.4-11.3-3-15.4-6.9L48,60.2z    M12.3,39.9c0-17.7,12.4-19.6,17.7-19.6c6.4,0,12.8,5.7,16.2,9.3c-13.8,1.9-24.5,13.8-24.5,28.1c0,2.2,0.3,4.4,0.7,6.5   C16.1,56.3,12.3,48.3,12.3,39.9z M50,90.9c-2.2-1.8-4.3-3.6-6.4-5.4c2.1,0.5,4.2,0.7,6.4,0.7c2.2,0,4.3-0.3,6.4-0.7   C54.3,87.2,52.2,89,50,90.9z M77.7,64.2c0.5-2.1,0.7-4.2,0.7-6.5c0-14.3-10.7-26.2-24.5-28.1c3.4-3.6,9.8-9.3,16.2-9.3   c5.3,0,17.7,1.9,17.7,19.6C87.7,48.3,83.9,56.3,77.7,64.2z"/></g><g xmlns="http://www.w3.org/2000/svg" display="none"><path display="inline" stroke="#15eda3" stroke-width="4" stroke-linecap="round" stroke-linejoin="round" d="M50,93   C28.4,73.6,10.7,54.8,10.7,40.2c0-15.5,9.4-21.2,19.3-21.2C40.3,19,50,31.7,50,31.7S59.7,19,69.9,19c10,0,19.3,5.7,19.3,21.2   C89.3,59.5,69.7,76.5,50,93z"/><circle display="inline" stroke="#15eda3" stroke-width="4" stroke-linecap="round" cx="50.1" cy="57.7" r="26"/><line display="inline" stroke="#15eda3" stroke-width="4" stroke-linecap="round" x1="50.1" y1="82.8" x2="50.1" y2="31.7"/><line display="inline" stroke="#15eda3" stroke-width="4" stroke-linecap="round" x1="50.1" y1="55.9" x2="69.4" y2="75.3"/><line display="inline" stroke="#15eda3" stroke-width="4" stroke-linecap="round" x1="50.1" y1="55.9" x2="30.7" y2="75.3"/></g><g xmlns="http://www.w3.org/2000/svg" display="none"><path display="inline" d="M84.8,22c-3.7-3.5-8.8-5.3-14.7-5.3c-8.7,0-16.9,8.1-20.1,11.8c-3.2-3.7-11.3-11.8-20.1-11.8   c-5.9,0-11,1.8-14.7,5.3c-4.3,4.1-6.5,10.1-6.5,17.8c0,9.2,4.2,18.7,12.8,28.9c2.3,2.7,4.8,5.4,7.5,8c0,0,0.1,0.1,0.1,0.1   c0,0,0.1,0.1,0.1,0.1c6,5.9,12.8,11.7,19.8,17.6c0,0,0,0,0,0c0.1,0.1,0.3,0.2,0.5,0.3c0,0,0.1,0,0.1,0C49.6,95,49.8,95,50,95   s0.4,0,0.6-0.1c0,0,0.1,0,0.1,0c0.2-0.1,0.3-0.2,0.5-0.3c0,0,0,0,0,0c7-5.9,13.8-11.6,19.8-17.6c0,0,0.1-0.1,0.1-0.1   c0,0,0.1-0.1,0.1-0.1c2.7-2.6,5.2-5.3,7.5-8c8.6-10.2,12.8-19.7,12.8-28.9C91.3,32.1,89.1,26.1,84.8,22z M48,89.3   c-5-4.7-10.7-9.2-15.4-13.7L48,60.2V89.3z M52,60.2l15.4,15.4C62.7,80.1,57,84.7,52,89.3V60.2z M12.3,39.9   c0-17.7,12.3-19.6,17.6-19.6C38,20.3,46,29.8,48,32v23.1l-17.9,18C19.4,62.2,12.3,51.4,12.3,39.9z M69.9,73.1L52,55.1V32   c2-2.2,9.9-11.6,18.2-11.6c5.3,0,17.7,1.9,17.7,19.6C87.8,51.4,80.6,62.2,69.9,73.1z"/></g><g xmlns="http://www.w3.org/2000/svg" display="none"><path display="inline" stroke="#15eda3" stroke-width="6" stroke-linecap="round" stroke-linejoin="round" d="M50,89.6   C26.9,68.8,8,48.8,8,33.1c0-16.6,10-22.7,20.7-22.7C39.6,10.4,50,24,50,24s10.4-13.6,21.3-13.6C82,10.4,92,16.5,92,33.1   c0,11.4-7.5,23.6-15.7,32.4c-18.8-18.5-34.7,0-34.7,0"/><line display="inline" stroke="#15eda3" stroke-width="6" stroke-linecap="round" stroke-linejoin="round" x1="50" y1="49" x2="50" y2="41"/><line display="inline" stroke="#15eda3" stroke-width="6" stroke-linecap="round" stroke-linejoin="round" x1="60" y1="49" x2="60" y2="41"/></g><g xmlns="http://www.w3.org/2000/svg" display="none"><circle display="inline" cx="50" cy="45" r="5"/><circle display="inline" cx="65" cy="45" r="5"/><path display="inline" stroke="#15eda3" stroke-width="6" stroke-linecap="round" stroke-linejoin="round" d="M50,89.6   C26.9,68.8,8,48.8,8,33.1c0-16.6,10-22.7,20.7-22.7C39.6,10.4,50,24,50,24s10.4-13.6,21.3-13.6C82,10.4,92,16.5,92,33.1   c0,11.4-7.5,23.6-15.7,32.4c-18.8,18.5-34.7,0-34.7,0"/></g><g xmlns="http://www.w3.org/2000/svg" display="none"><path display="inline" stroke="#15eda3" stroke-width="6" stroke-linecap="round" stroke-linejoin="round" d="M50,89.6   C26.9,68.8,8,48.8,8,33.1c0-16.6,10-22.7,20.7-22.7C39.6,10.4,50,24,50,24s10.4-13.6,21.3-13.6C82,10.4,92,16.5,92,33.1   c0,11.4-7.5,23.6-15.7,32.4c-18.8,18.5-34.7,0-34.7,0"/><line display="inline" stroke="#15eda3" stroke-width="6" stroke-linecap="round" stroke-linejoin="round" x1="50" y1="49" x2="50" y2="41"/><line display="inline" stroke="#15eda3" stroke-width="6" stroke-linecap="round" stroke-linejoin="round" x1="60" y1="49" x2="60" y2="41"/></g><g xmlns="http://www.w3.org/2000/svg"><path d="M50,92.6c-0.7,0-1.4-0.3-2-0.8C10.1,57.8,5,43,5,33.1C5,20.7,11.2,7.4,28.7,7.4c9,0,17.4,7.7,21.3,12   c4-4.3,12.3-12,21.3-12C88.8,7.4,95,20.7,95,33.1c0,15.1-11.5,29.1-16.5,34.4c0,0-0.1,0.1-0.1,0.1C72,74,65.2,77,58,76.7   c-11-0.5-18.3-8.9-18.6-9.3c-1.1-1.3-0.9-3.2,0.3-4.2c1.3-1.1,3.2-0.9,4.2,0.3c0.1,0.1,6,6.8,14.4,7.2c5.4,0.2,10.7-2.3,15.8-7.3   C83.5,53.4,89,42.1,89,33.1c0-5.9-1.7-19.7-17.7-19.7c-7.7,0-16.3,9-18.9,12.4C51.8,26.6,50.9,27,50,27l0,0c-0.9,0-1.8-0.4-2.4-1.2   C45,22.4,36.4,13.4,28.7,13.4c-16,0-17.7,13.8-17.7,19.7c0,15.4,21.9,37.1,41,54.3c1.2,1.1,1.3,3,0.2,4.2   C51.6,92.3,50.8,92.6,50,92.6z"/><path d="M50,52c-1.7,0-3-1.3-3-3v-8c0-1.7,1.3-3,3-3c1.7,0,3,1.3,3,3v8C53,50.7,51.7,52,50,52z"/><path d="M60,52c-1.7,0-3-1.3-3-3v-8c0-1.7,1.3-3,3-3s3,1.3,3,3v8C63,50.7,61.7,52,60,52z"/></g><g xmlns="http://www.w3.org/2000/svg" display="none"><path display="inline" stroke="#15eda3" stroke-width="6" stroke-linecap="round" d="M81.8,92   c0-17.1-63.7-52.5-63.7-72.8C18.2,11,23.1,8,28.4,8c5.4,0,10.5,6.7,10.5,6.7S44,8,49.4,8c5.2,0,10.2,3,10.2,11.2   c0,20.3-41.4,35.8-41.4,53.7C18.2,87.6,31.1,92,38.9,92c17.4,0,33.8-12.7,33.8-30.9"/></g><g xmlns="http://www.w3.org/2000/svg" display="none"><path display="inline" d="M81.8,95c-1.7,0-3-1.4-3-3c0-3.2-3.5-7.9-8.6-13.1C63.7,88.5,52.1,95,38.9,95c-2.5,0-9.1-0.4-15-4.6   c-4-2.8-8.7-8.1-8.7-17.5c0-9.5,9-17.6,19-26c-10.9-10.1-19-19.5-19-27.7C15.2,12.6,18.6,5,28.4,5c4.3,0,8.1,2.9,10.5,5.2   C41.2,7.9,45.1,5,49.4,5c9.7,0,13.2,7.6,13.2,14.2c0,10.6-9.3,19.5-19.2,27.9c3.5,3.1,7.1,6.2,10.7,9.2c5.2,4.4,10.1,8.6,14.4,12.5   c0.7-2.4,1.1-5,1.1-7.7c0-1.7,1.4-3,3-3s3,1.4,3,3c0,4.3-0.9,8.4-2.5,12.2c7,7,11.7,13.3,11.7,18.7C84.8,93.6,83.5,95,81.8,95z    M38.7,51c-8.8,7.3-17.5,14.9-17.5,21.9c0,15.9,17,16.1,17.7,16.1c10.4,0,21.4-5.3,27-14.4c-4.8-4.5-10.4-9.2-15.7-13.7   C46.2,57.5,42.3,54.2,38.7,51z M28.4,11c-3.3,0-7.2,1.4-7.2,8.2C21.2,25.4,29,34,38.8,43c9.1-7.7,17.7-15.6,17.7-23.8   c0-6.7-3.9-8.2-7.2-8.2c-3.1,0-7,4.1-8.1,5.5l-2.4,3.1l-2.4-3.1C35.4,15.1,31.5,11,28.4,11z"/></g><g xmlns="http://www.w3.org/2000/svg" display="none"><path display="inline" stroke="#15eda3" stroke-width="6" stroke-linecap="round" d="M76.8,77c0,0,7.2,7,7.2,15"/><path display="inline" stroke="#15eda3" stroke-width="6" stroke-linecap="round" d="M44,50   c-9.4-10.5-18.6-19.1-25.7-19.1C10.8,30.9,8,35.5,8,40.3c0,5,6.2,9.7,6.2,9.7S8,54.7,8,59.7c0,4.8,2.8,9.4,10.3,9.4   C25.4,69.1,34.6,60.5,44,50z"/><path display="inline" stroke="#15eda3" stroke-width="6" stroke-linecap="round" d="M56,50   c9.4-10.5,18.6-19.1,25.7-19.1c7.5,0,10.3,4.6,10.3,9.4c0,5-6.2,9.7-6.2,9.7s6.2,4.7,6.2,9.7c0,4.8-2.8,9.4-10.3,9.4   C74.6,69.1,65.4,60.5,56,50z"/><path display="inline" stroke="#15eda3" stroke-width="6" stroke-linecap="round" d="M50,44   c-10.5-9.4-19.1-18.6-19.1-25.7c0-7.5,4.6-10.3,9.4-10.3c5,0,9.7,6.2,9.7,6.2S54.7,8,59.7,8c4.8,0,9.4,2.8,9.4,10.3   C69.1,25.4,60.5,34.6,50,44z"/><path display="inline" stroke="#15eda3" stroke-width="6" stroke-linecap="round" d="M50,56   c-10.5,9.4-19.1,18.6-19.1,25.7c0,7.5,4.6,10.3,9.4,10.3c5,0,9.7-6.2,9.7-6.2s4.7,6.2,9.7,6.2c4.8,0,9.4-2.8,9.4-10.3   C69.1,74.6,60.5,65.4,50,56z"/></g><g xmlns="http://www.w3.org/2000/svg" display="none"><path display="inline" stroke="#15eda3" stroke-width="6" stroke-linecap="round" d="M45.8,54.2   c-14.1-0.7-26.6-0.4-31.7,4.7c-5.3,5.3-4.1,10.5-0.6,13.9c3.5,3.5,11.2,2.5,11.2,2.5s-1,7.7,2.5,11.2c3.4,3.4,8.6,4.7,13.9-0.6   C46.1,80.9,46.5,68.4,45.8,54.2z"/><path display="inline" stroke="#15eda3" stroke-width="6" stroke-linecap="round" d="M54.2,45.8   c-0.7-14.1-0.4-26.6,4.7-31.7c5.3-5.3,10.5-4.1,13.9-0.6c3.5,3.5,2.5,11.2,2.5,11.2s7.7-1,11.2,2.5c3.4,3.4,4.7,8.6-0.6,13.9   C80.9,46.1,68.4,46.5,54.2,45.8z"/><path display="inline" stroke="#15eda3" stroke-width="6" stroke-linecap="round" d="M45.8,45.8   c-14.1,0.7-26.6,0.4-31.7-4.7c-5.3-5.3-4.1-10.5-0.6-13.9c3.5-3.5,11.2-2.5,11.2-2.5s-1-7.7,2.5-11.2c3.4-3.4,8.6-4.7,13.9,0.6   C46.1,19.1,46.5,31.6,45.8,45.8z"/><path display="inline" stroke="#15eda3" stroke-width="6" stroke-linecap="round" d="M54.2,54.2   c-0.7,14.1-0.4,26.6,4.7,31.7c5.3,5.3,10.5,4.1,13.9,0.6c3.5-3.5,2.5-11.2,2.5-11.2s7.7,1,11.2-2.5c3.4-3.4,4.7-8.6-0.6-13.9   C80.9,53.9,68.4,53.5,54.2,54.2z"/></g><g xmlns="http://www.w3.org/2000/svg" display="none"><path display="inline" d="M33.7,92.5C33.7,92.5,33.7,92.5,33.7,92.5c-3.1,0-6.1-1.3-8.6-3.8c-2.8-2.8-3.4-7.1-3.5-10.2   c-3.3-0.1-7.5-0.8-10.2-3.5C4.9,68.5,7.6,61.1,12,56.8c4-4,11.4-5.8,24-5.8c2.9,0,6.2,0.1,10,0.3l2.7,0.1l0.1,2.7   c0.7,14,0.6,27.8-5.5,33.9C40.2,91,37,92.5,33.7,92.5z M28.2,71.8l-0.5,3.9c-0.2,1.6-0.4,6.7,1.6,8.7c0.9,0.9,2.5,2.1,4.4,2.1   c1.7,0,3.5-0.9,5.3-2.7c4.2-4.2,4.3-16.6,3.9-26.7c-2.6-0.1-4.9-0.2-7-0.2c-10.4,0-17,1.4-19.7,4.1c-3.4,3.4-3.6,6.7-0.6,9.7   c1.1,1.1,3.5,1.7,6.5,1.7c1.3,0,2.2-0.1,2.2-0.1L28.2,71.8z M64.1,49.1c-2.9,0-6.2-0.1-10-0.3l-2.7-0.1l-0.1-2.7   c-0.7-14-0.6-27.8,5.5-33.9c3-3,6.2-4.5,9.6-4.5c3.1,0,6.1,1.3,8.6,3.8c2.8,2.8,3.4,7.1,3.5,10.2c3.3,0.1,7.5,0.8,10.2,3.5   c2.4,2.4,3.7,5.3,3.8,8.3c0.1,2.4-0.6,6.1-4.5,9.9C84,47.3,76.6,49.1,64.1,49.1z M57.1,42.9c2.6,0.1,4.9,0.2,7,0.2   c10.4,0,17-1.4,19.7-4.1c1.9-1.9,2.8-3.7,2.7-5.5c-0.1-1.8-1.2-3.3-2.1-4.2c-1.1-1.1-3.5-1.7-6.5-1.7c-1.3,0-2.2,0.1-2.2,0.1   l-3.9,0.5l0.5-3.9c0.2-1.6,0.4-6.7-1.6-8.7c-1-0.9-2.5-2.1-4.4-2.1c-1.7,0-3.5,0.9-5.3,2.7C56.9,20.4,56.7,32.8,57.1,42.9z    M35.9,49.1c-12.5,0-19.9-1.8-24-5.8c-3.8-3.8-4.6-7.5-4.5-9.9c0.1-3,1.4-5.9,3.8-8.3c2.7-2.7,6.9-3.4,10.2-3.5   c0.1-3.1,0.7-7.4,3.5-10.2c2.5-2.5,5.5-3.8,8.6-3.8c3.4,0,6.6,1.5,9.6,4.5c6.1,6.1,6.3,19.9,5.5,33.9l-0.1,2.7l-2.7,0.1   C42.1,49,38.9,49.1,35.9,49.1z M22.1,27.5c-3.1,0-5.4,0.6-6.5,1.7c-0.9,0.9-2,2.4-2.1,4.2c-0.1,1.8,0.9,3.6,2.7,5.5   c2.7,2.7,9.3,4.1,19.7,4.1c2.1,0,4.4-0.1,7-0.2c0.4-10.1,0.2-22.5-3.9-26.7c-1.8-1.8-3.6-2.7-5.3-2.7c-1.9,0-3.4,1.1-4.4,2.1   c-2,2-1.8,7.1-1.6,8.7l0.5,3.9l-3.9-0.5C24.3,27.6,23.4,27.5,22.1,27.5z M66.3,92.5c-3.4,0-6.6-1.5-9.6-4.5   c-6.1-6.1-6.3-19.9-5.5-33.9l0.1-2.7l2.7-0.1c3.8-0.2,7.1-0.3,10-0.3c12.5,0,19.9,1.8,24,5.8c4.3,4.3,7.1,11.7,0.6,18.2   c-2.7,2.7-6.9,3.4-10.2,3.5c-0.1,3.1-0.7,7.4-3.5,10.2C72.5,91.2,69.5,92.5,66.3,92.5z M57.1,57.1c-0.4,10.1-0.2,22.5,3.9,26.7   c1.8,1.8,3.6,2.7,5.3,2.7c1.9,0,3.4-1.1,4.4-2.1c2-2,1.8-7.1,1.6-8.7l-0.5-3.9l3.9,0.5c0,0,0.9,0.1,2.2,0.1c0,0,0,0,0,0   c3,0,5.4-0.6,6.5-1.7c3-3,2.8-6.3-0.6-9.7c-2.7-2.7-9.3-4.1-19.7-4.1C62,56.9,59.7,57,57.1,57.1z"/></g><g xmlns="http://www.w3.org/2000/svg" display="none"><path display="inline" stroke="#15eda3" stroke-width="6" stroke-linecap="round" d="M44,50   c-9.4-10.5-18.6-19.1-25.7-19.1C10.8,30.9,8,35.5,8,40.3c0,5,6.2,9.7,6.2,9.7S8,54.7,8,59.7c0,4.8,2.8,9.4,10.3,9.4   C25.4,69.1,34.6,60.5,44,50z"/><path display="inline" stroke="#15eda3" stroke-width="6" stroke-linecap="round" d="M56,50   c9.4-10.5,18.6-19.1,25.7-19.1c7.5,0,10.3,4.6,10.3,9.4c0,5-6.2,9.7-6.2,9.7s6.2,4.7,6.2,9.7c0,4.8-2.8,9.4-10.3,9.4   C74.6,69.1,65.4,60.5,56,50z"/><path display="inline" stroke="#15eda3" stroke-width="6" stroke-linecap="round" d="M50,44   c-10.5-9.4-19.1-18.6-19.1-25.7c0-7.5,4.6-10.3,9.4-10.3c5,0,9.7,6.2,9.7,6.2S54.7,8,59.7,8c4.8,0,9.4,2.8,9.4,10.3   C69.1,25.4,60.5,34.6,50,44z"/><path display="inline" stroke="#15eda3" stroke-width="6" stroke-linecap="round" d="M50,56   c-10.5,9.4-19.1,18.6-19.1,25.7c0,7.5,4.6,10.3,9.4,10.3c5,0,9.7-6.2,9.7-6.2s4.7,6.2,9.7,6.2c4.8,0,9.4-2.8,9.4-10.3   C69.1,74.6,60.5,65.4,50,56z"/></g><g xmlns="http://www.w3.org/2000/svg" display="none"><path display="inline" d="M18.3,72.1C12.2,72.1,5,68.8,5,59.7c0-3.9,2.6-7.5,4.7-9.7C7.6,47.8,5,44.2,5,40.3   c0-9.2,7.2-12.4,13.3-12.4c8.7,0,18.5,9.7,27.9,20.1l1.8,2l-1.8,2C36.9,62.4,27,72.1,18.3,72.1z M18.3,33.9c-4.9,0-7.3,2.2-7.3,6.4   c0,2.8,3.7,6.3,5,7.3l3.1,2.4L16,52.4c-1.3,1-5,4.5-5,7.3c0,4.2,2.5,6.4,7.3,6.4c5.9,0,14.8-8.7,21.6-16.1   C33.1,42.6,24.2,33.9,18.3,33.9z"/><path display="inline" d="M81.7,72.1c-8.7,0-18.5-9.7-27.9-20.1L52,50l1.8-2C63.1,37.6,73,27.9,81.7,27.9c6.1,0,13.3,3.2,13.3,12.4   c0,3.9-2.6,7.5-4.7,9.7c2.1,2.2,4.7,5.8,4.7,9.7C95,68.8,87.8,72.1,81.7,72.1z M60.1,50c6.8,7.4,15.7,16.1,21.6,16.1   c4.9,0,7.3-2.2,7.3-6.4c0-2.8-3.7-6.3-5-7.3L80.9,50l3.1-2.4c1.3-1,5-4.5,5-7.3c0-4.2-2.5-6.4-7.3-6.4C75.8,33.9,66.9,42.6,60.1,50   z"/><path display="inline" d="M50,48l-2-1.8C37.6,36.9,27.9,27,27.9,18.3C27.9,12.2,31.2,5,40.3,5c3.9,0,7.5,2.6,9.7,4.7   C52.2,7.6,55.8,5,59.7,5c9.2,0,12.4,7.2,12.4,13.3c0,8.7-9.7,18.5-20.1,27.9L50,48z M40.3,11c-4.2,0-6.4,2.5-6.4,7.3   c0,5.9,8.7,14.8,16.1,21.6c7.4-6.8,16.1-15.7,16.1-21.6c0-4.9-2.2-7.3-6.4-7.3c-2.8,0-6.3,3.7-7.3,5L50,19.1L47.6,16   C46.6,14.7,43.1,11,40.3,11z"/><path display="inline" d="M59.7,95c-3.9,0-7.5-2.6-9.7-4.7c-2.2,2.1-5.8,4.7-9.7,4.7c-9.2,0-12.4-7.2-12.4-13.3   c0-8.7,9.7-18.5,20.1-27.9l2-1.8l2,1.8C62.4,63.1,72.1,73,72.1,81.7C72.1,87.8,68.8,95,59.7,95z M50,80.9l2.4,3.1   c1,1.3,4.5,5,7.3,5c4.2,0,6.4-2.5,6.4-7.3c0-5.9-8.7-14.8-16.1-21.6c-7.4,6.8-16.1,15.7-16.1,21.6c0,4.9,2.2,7.3,6.4,7.3   c2.6,0,6.1-3.4,7.3-5L50,80.9z"/></g><g xmlns="http://www.w3.org/2000/svg" display="none"><path display="inline" stroke="#15eda3" stroke-width="6" stroke-linecap="round" d="M56.7,68.5   c8.6,8.7,16.7,15.1,23.2,15.1c8.8,0,12-5.3,12-11c0-5.8-7.2-11.3-7.2-11.3S92,55.8,92,50c0-5.6-3.2-11-12-11   c-8.3,0-18.9,10-30,22.3C39,49.1,28.3,39.1,20,39.1c-8.8,0-12,5.3-12,11c0,5.8,7.2,11.3,7.2,11.3S8,66.8,8,72.6c0,5.6,3.2,11,12,11   c6.6,0,14.7-6.3,23.2-15.1"/><path display="inline" stroke="#15eda3" stroke-width="6" stroke-linecap="round" d="M28.8,16.4   c14.3,5,16.4,18.7,16.4,18.7"/><path display="inline" stroke="#15eda3" stroke-width="6" stroke-linecap="round" d="M71.2,16.4   c-14.3,5-16.4,18.7-16.4,18.7"/></g><g xmlns="http://www.w3.org/2000/svg" display="none"><path display="inline" d="M80,86.6c-6.7,0-14.6-4.9-25.4-16c-1.2-1.2-1.1-3.1,0-4.2s3.1-1.1,4.2,0C68.2,76,75.1,80.6,80,80.6   c7.5,0,9-4.3,9-8c0-3.5-4.5-7.7-6-8.9l-3.1-2.4l3.1-2.4c1.6-1.2,6-5.4,6-8.9c0-3.6-1.6-8-9-8c-7.6,0-18.8,11.4-27.7,21.3L50,65.8   l-2.2-2.5C38.9,53.4,27.7,42.1,20,42.1c-7.5,0-9,4.3-9,8c0,3.5,4.5,7.7,6,8.9l3.1,2.4L17,63.7c-1.6,1.2-6,5.4-6,8.9   c0,3.6,1.6,8,9,8c4.9,0,11.8-4.6,21.1-14.2c1.2-1.2,3.1-1.2,4.2,0c1.2,1.2,1.2,3.1,0,4.2c-10.8,11-18.7,16-25.4,16   c-6.9,0-15-3.7-15-14c0-4.6,3.2-8.8,5.7-11.3C8.2,58.8,5,54.7,5,50c0-10.3,8.1-14,15-14c9.2,0,19.8,9.7,30,20.8   c10.2-11.1,20.7-20.8,30-20.8c6.9,0,15,3.7,15,14c0,4.6-3.2,8.8-5.7,11.3C91.8,63.8,95,68,95,72.6C95,82.9,86.9,86.6,80,86.6z"/><path display="inline" d="M45.2,38.1c-1.5,0-2.7-1.1-3-2.6c-0.1-0.5-2-12-14.4-16.3c-1.6-0.5-2.4-2.3-1.8-3.8   c0.5-1.6,2.3-2.4,3.8-1.8C45.7,19.2,48.1,34,48.2,34.7c0.2,1.6-0.9,3.2-2.5,3.4C45.5,38.1,45.3,38.1,45.2,38.1z"/><path display="inline" d="M54.8,38.1c-0.2,0-0.3,0-0.5,0c-1.6-0.3-2.8-1.8-2.5-3.4c0.1-0.6,2.5-15.5,18.4-21.1   c1.6-0.5,3.3,0.3,3.8,1.8c0.5,1.6-0.3,3.3-1.8,3.8c-12.4,4.3-14.3,15.8-14.4,16.3C57.5,37,56.3,38.1,54.8,38.1z"/></g><g xmlns="http://www.w3.org/2000/svg" display="none"><path display="inline" stroke="#15eda3" stroke-width="6" stroke-linecap="round" d="M56.7,42.8   c8.6-8.7,16.7-15.1,23.2-15.1c8.8,0,12,5.3,12,11c0,5.8-7.2,11.3-7.2,11.3S92,55.5,92,61.3c0,5.6-3.2,11-12,11   c-8.3,0-18.9-10-30-22.3S28.3,27.7,20,27.7c-8.8,0-12,5.3-12,11C8,44.5,15.2,50,15.2,50S8,55.5,8,61.3c0,5.6,3.2,11,12,11   c6.6,0,14.7-6.3,23.2-15.1"/></g><g xmlns="http://www.w3.org/2000/svg" display="none"><path display="inline" d="M80,75.3c-9.9,0-21.3-11.2-32.2-23.3C38.9,42.1,27.7,30.7,20,30.7c-7.5,0-9,4.3-9,8c0,3.5,4.5,7.7,6,8.9   l3.1,2.4L17,52.4c-1.6,1.2-6,5.4-6,8.9c0,3.6,1.6,8,9,8c4.9,0,11.8-4.6,21.1-14.2c1.2-1.2,3.1-1.2,4.2,0c1.2,1.2,1.2,3.1,0,4.2   c-10.8,11-18.7,16-25.4,16c-6.9,0-15-3.7-15-14c0-4.6,3.2-8.8,5.7-11.3C8.2,47.5,5,43.3,5,38.7c0-10.3,8.1-14,15-14   c9.9,0,21.3,11.2,32.2,23.3c8.9,9.9,20.1,21.3,27.7,21.3c7.5,0,9-4.3,9-8c0-3.5-4.5-7.7-6-8.9L79.9,50l3.1-2.4c1.6-1.2,6-5.4,6-8.9   c0-3.6-1.6-8-9-8c-4.9,0-11.8,4.6-21.1,14.2c-1.2,1.2-3.1,1.2-4.2,0c-1.2-1.2-1.2-3.1,0-4.2c10.8-11,18.7-16,25.4-16   c6.9,0,15,3.7,15,14c0,4.6-3.2,8.8-5.7,11.3c2.5,2.5,5.7,6.7,5.7,11.3C95,71.6,86.9,75.3,80,75.3z"/></g><g xmlns="http://www.w3.org/2000/svg" display="none"><path display="inline" stroke="#15eda3" stroke-width="6" stroke-linecap="round" d="M27.1,44   c10.5-9.4,19.1-18.6,19.1-25.7c0-7.5-4.6-10.3-9.4-10.3c-5,0-9.7,6.2-9.7,6.2S22.4,8,17.4,8C12.6,8,8,10.8,8,18.3   C8,25.4,16.6,34.6,27.1,44z"/><path display="inline" stroke="#15eda3" stroke-width="6" stroke-linecap="round" d="M72.9,91   c-10.5-9.4-19.1-18.6-19.1-25.7c0-7.5,4.6-10.3,9.4-10.3c5,0,9.7,6.2,9.7,6.2s4.7-6.2,9.7-6.2c4.8,0,9.4,2.8,9.4,10.3   C92,72.4,83.4,81.6,72.9,91z"/><line display="inline" stroke="#15eda3" stroke-width="6" stroke-linecap="round" x1="21.8" y1="91.9" x2="70.2" y2="8.1"/></g><g xmlns="http://www.w3.org/2000/svg" display="none"><path display="inline" d="M27.1,48l-2-1.8C14.7,36.8,5,27,5,18.3C5,12.2,8.2,5,17.4,5c3.9,0,7.5,2.6,9.7,4.7   C29.3,7.6,32.8,5,36.8,5c9.2,0,12.4,7.2,12.4,13.3c0,8.7-9.7,18.5-20.1,27.9L27.1,48z M17.4,11c-4.2,0-6.4,2.5-6.4,7.3   c0,5.9,8.7,14.8,16.1,21.6c7.4-6.8,16.1-15.7,16.1-21.6c0-4.9-2.2-7.3-6.4-7.3c-2.8,0-6.3,3.7-7.3,5l-2.4,3.1L24.7,16   C23.7,14.7,20.2,11,17.4,11z"/><path display="inline" d="M72.9,95l-2-1.8C60.5,83.8,50.8,74,50.8,65.3c0-6.1,3.2-13.3,12.4-13.3c3.9,0,7.5,2.6,9.7,4.7   c2.2-2.1,5.8-4.7,9.7-4.7C91.8,52,95,59.2,95,65.3c0,8.7-9.7,18.5-20.1,27.9L72.9,95z M63.2,58c-4.2,0-6.4,2.5-6.4,7.3   c0,5.9,8.7,14.8,16.1,21.6C80.3,80.1,89,71.2,89,65.3c0-4.9-2.2-7.3-6.4-7.3c-2.8,0-6.3,3.7-7.3,5l-2.4,3.1L70.5,63   C69.5,61.7,66,58,63.2,58z"/><path display="inline" d="M21.8,94.9c-0.5,0-1-0.1-1.5-0.4c-1.4-0.8-1.9-2.7-1.1-4.1L67.6,6.6c0.8-1.4,2.7-1.9,4.1-1.1   c1.4,0.8,1.9,2.7,1.1,4.1L24.4,93.4C23.8,94.4,22.8,94.9,21.8,94.9z"/></g></g><g id="SvgjsG2134" featureKey="PPkF4s-0" transform="matrix(2.9203173790273746,0,0,2.9203173790273746,-2.6282887046594854,143.50813404309733)" fill="#000"><path d="M4.86 16.87 q1.42 0.57 2.6 0.57 q1.24 0 1.97 -0.48 t0.73 -1.14 q0 -0.54 -0.43 -0.88 t-1.09 -0.51 t-1.74 -0.37 q-1.44 -0.24 -2.64 -0.62 t-2.18 -1.32 t-0.98 -2.54 q0 -2.36 1.73 -3.39 t4.07 -1.03 q1.8 0 3.13 0.49 t2.65 1.47 l-1.76 2.4 q-0.98 -0.7 -2.04 -1.1 t-2.1 -0.4 q-0.92 0 -1.72 0.33 t-0.8 1.11 q0 0.48 0.41 0.77 t0.9 0.42 t1.59 0.37 l0.72 0.14 q1.66 0.32 2.75 0.71 t1.89 1.31 t0.8 2.56 q0 2.22 -1.57 3.38 t-4.25 1.16 q-3.92 0 -6.6 -2.28 l1.68 -2.42 q0.86 0.72 2.28 1.29 z M19.22 16.08 q0 0.7 0.24 1.17 t1.12 0.47 q0.4 0 0.76 -0.04 l0 2.52 q-0.72 0.08 -1.34 0.08 q-1.28 0 -2.07 -0.21 t-1.23 -0.81 t-0.44 -1.72 l0 -6.1 l-1.34 0 l0 -2.62 l1.34 0 l0 -2.94 l2.96 0 l0 2.94 l2.2 0 l0 2.62 l-2.2 0 l0 4.64 z M28.96 11.87 q-0.86 0.21 -1.58 0.99 t-0.72 2.28 l0 4.86 l-2.98 0 l0 -11 l2.98 0 l0 1.46 q0.74 -0.98 1.81 -1.33 t1.95 -0.33 l0 2.92 q-0.6 -0.06 -1.46 0.15 z M34.69 19.74 q-1.37 -0.54 -2.35 -1.83 t-0.98 -3.37 t0.99 -3.36 t2.37 -1.82 t2.62 -0.54 q1.44 0 2.74 0.64 t2.13 1.88 t0.87 2.94 q0 0.52 -0.02 0.9 t-0.04 0.48 l-8.68 0 q0.24 1.16 1.2 1.58 t1.8 0.42 q1.08 0 1.72 -0.39 t1.1 -0.89 l2.32 1.34 q-1.88 2.56 -5.14 2.56 q-1.28 0 -2.65 -0.54 z M35.3 12.05 q-0.78 0.61 -0.88 1.49 l5.5 0 q-0.06 -0.52 -0.4 -1 t-0.91 -0.79 t-1.29 -0.31 q-1.24 0 -2.02 0.61 z M53.84 18.9 q-0.38 0.52 -1.31 0.93 t-2.03 0.41 q-1.7 0 -2.95 -0.76 t-1.91 -2.07 t-0.66 -2.91 t0.66 -2.91 t1.91 -2.07 t2.95 -0.76 q1.14 0 2.01 0.39 t1.33 0.99 l0 -1.14 l2.96 0 l0 11 l-2.96 0 l0 -1.1 z M53.14 12.25 q-0.82 -0.87 -2.2 -0.87 q-1.4 0 -2.21 0.87 t-0.81 2.25 q0 1.34 0.83 2.22 t2.19 0.88 q1.4 0 2.21 -0.83 t0.81 -2.27 q0 -1.38 -0.82 -2.25 z M62.78 4.880000000000001 l0 8.8 l3.74 -4.62 l3.66 0 l-4.42 5.12 l4.6 5.82 l-3.62 0 l-2.88 -3.6 l-1.08 1.24 l0 2.36 l-3 0 l0 -15.12 l3 0 z M74.94 7.369999999999999 q-0.48 0.47 -1.16 0.47 q-0.7 0 -1.19 -0.47 t-0.49 -1.15 q0 -0.66 0.49 -1.13 t1.19 -0.47 q0.68 0 1.16 0.47 t0.48 1.13 q0 0.68 -0.48 1.15 z M72.28 9.02 l3 0 l0 10.98 l-3 0 l0 -10.98 z M81.74 20 l-3 0 l0 -8.26 l-1.24 0 l0 -2.56 l1.24 0 q0.08 -2.14 1.22 -3.26 t3.16 -1.12 q0.6 0 1.32 0.18 l-0.16 2.42 q-0.38 -0.12 -0.82 -0.12 q-1.08 0 -1.4 0.54 t-0.32 1.36 l1.98 0 l0 2.56 l-1.98 0 l0 8.26 z M87.34 24.12 l1.9 -4.52 l-4.72 -10.56 l3.46 0 l2.78 7 l2.56 -7 l3.46 0 l-6.14 15.08 l-3.3 0 z"/></g><g id="SvgjsG2135" featureKey="uwAHB0-0" transform="matrix(0.37883091349174713,0,0,0.37883091349174713,-0.4015607466243732,221.92400712876156)" fill="#000"><path d="M5.98 5.48 q2.46 0 3.86 1.78 l-1.14 0.82 q-1.04 -1.4 -2.76 -1.4 q-1.4 0 -2.27 0.72 t-0.91 1.96 q0 1.08 0.66 1.75 t2.3 1.13 q2.16 0.64 2.88 1.13 t1.09 1.21 t0.37 1.8 q0 1.72 -1.23 2.83 t-3.17 1.15 q-3.06 0 -4.6 -2.14 l1.26 -0.84 q1.06 1.76 3.24 1.78 q1.42 0 2.3 -0.79 t0.88 -1.99 q0 -0.7 -0.25 -1.15 t-0.76 -0.78 t-1.3 -0.6 t-1.85 -0.63 q-1.6 -0.52 -2.37 -1.46 t-0.77 -2.4 q0 -1.72 1.29 -2.8 t3.25 -1.08 z M24.344 5.84 l0 8.5 q0 2.3 0.95 3.54 t2.89 1.28 q3.8 0 3.84 -5.02 l0 -8.3 l1.32 0 l0 8.64 q0 2.78 -1.3 4.32 t-3.86 1.56 q-2.52 0 -3.83 -1.53 t-1.33 -4.25 l0 -8.74 l1.32 0 z M53.58800000000001 5.48 q3.14 0 4.88 2.22 l-1.08 0.9 q-0.6 -0.9 -1.6 -1.41 t-2.2 -0.51 q-2.64 0 -4.3 1.74 t-1.7 4.5 q0 2.74 1.67 4.47 t4.33 1.77 q1.14 0 2.32 -0.57 t1.86 -1.63 l1.08 0.82 q-1.88 2.58 -5.26 2.58 q-3.28 -0.02 -5.27 -2.12 t-2.05 -5.32 q0 -3.26 2.05 -5.33 t5.27 -2.11 z M77.89200000000001 5.48 q3.14 0 4.88 2.22 l-1.08 0.9 q-0.6 -0.9 -1.6 -1.41 t-2.2 -0.51 q-2.64 0 -4.3 1.74 t-1.7 4.5 q0 2.74 1.67 4.47 t4.33 1.77 q1.14 0 2.32 -0.57 t1.86 -1.63 l1.08 0.82 q-1.88 2.58 -5.26 2.58 q-3.28 -0.02 -5.27 -2.12 t-2.05 -5.32 q0 -3.26 2.05 -5.33 t5.27 -2.11 z M104.456 5.84 l0 1.2 l-7.34 0 l0 5.04 l6.88 0 l0 1.2 l-6.88 0 l0 5.52 l7.66 0 l0 1.2 l-8.98 0 l0 -14.16 l8.66 0 z M121.92000000000002 5.48 q2.46 0 3.86 1.78 l-1.14 0.82 q-1.04 -1.4 -2.76 -1.4 q-1.4 0 -2.27 0.72 t-0.91 1.96 q0 1.08 0.66 1.75 t2.3 1.13 q2.16 0.64 2.88 1.13 t1.09 1.21 t0.37 1.8 q0 1.72 -1.23 2.83 t-3.17 1.15 q-3.06 0 -4.6 -2.14 l1.26 -0.84 q1.06 1.76 3.24 1.78 q1.42 0 2.3 -0.79 t0.88 -1.99 q0 -0.7 -0.25 -1.15 t-0.76 -0.78 t-1.3 -0.6 t-1.85 -0.63 q-1.6 -0.52 -2.37 -1.46 t-0.77 -2.4 q0 -1.72 1.29 -2.8 t3.25 -1.08 z M143.264 5.48 q2.46 0 3.86 1.78 l-1.14 0.82 q-1.04 -1.4 -2.76 -1.4 q-1.4 0 -2.27 0.72 t-0.91 1.96 q0 1.08 0.66 1.75 t2.3 1.13 q2.16 0.64 2.88 1.13 t1.09 1.21 t0.37 1.8 q0 1.72 -1.23 2.83 t-3.17 1.15 q-3.06 0 -4.6 -2.14 l1.26 -0.84 q1.06 1.76 3.24 1.78 q1.42 0 2.3 -0.79 t0.88 -1.99 q0 -0.7 -0.25 -1.15 t-0.76 -0.78 t-1.3 -0.6 t-1.85 -0.63 q-1.6 -0.52 -2.37 -1.46 t-0.77 -2.4 q0 -1.72 1.29 -2.8 t3.25 -1.08 z M177.312 5.84 l0 14.16 l-1.32 0 l0 -14.16 l1.32 0 z M195.45600000000002 5.48 q2.46 0 3.86 1.78 l-1.14 0.82 q-1.04 -1.4 -2.76 -1.4 q-1.4 0 -2.27 0.72 t-0.91 1.96 q0 1.08 0.66 1.75 t2.3 1.13 q2.16 0.64 2.88 1.13 t1.09 1.21 t0.37 1.8 q0 1.72 -1.23 2.83 t-3.17 1.15 q-3.06 0 -4.6 -2.14 l1.26 -0.84 q1.06 1.76 3.24 1.78 q1.42 0 2.3 -0.79 t0.88 -1.99 q0 -0.7 -0.25 -1.15 t-0.76 -0.78 t-1.3 -0.6 t-1.85 -0.63 q-1.6 -0.52 -2.37 -1.46 t-0.77 -2.4 q0 -1.72 1.29 -2.8 t3.25 -1.08 z M229.84400000000002 15.04 l6.5 0 l-3.2 -7.76 z M233.88400000000001 5.84 l5.96 14.16 l-1.48 0 l-1.54 -3.76 l-7.5 0 l-1.6 3.76 l-1.38 0 l6.18 -14.16 l1.36 0 z M269.372 5.84 l5.16 11.88 l5.16 -11.88 l1.88 0 l0 14.16 l-1.32 0 l0 -12.48 l-0.04 0 l-5.4 12.48 l-0.58 0 l-5.48 -12.48 l-0.04 0 l0 12.48 l-1.32 0 l0 -14.16 l1.98 0 z M297.1960000000001 15.04 l6.5 0 l-3.2 -7.76 z M301.23600000000005 5.84 l5.96 14.16 l-1.48 0 l-1.54 -3.76 l-7.5 0 l-1.6 3.76 l-1.38 0 l6.18 -14.16 l1.36 0 z M323.68000000000006 12.08 q1.54 0 2.38 -0.69 t0.84 -1.83 t-0.82 -1.82 t-2.44 -0.7 l-2.86 0 l0 5.04 l2.9 0 z M323.28000000000003 5.84 q4.9 0 4.94 3.72 q0 3.14 -3.62 3.64 l4.12 6.8 l-1.5 0 l-3.98 -6.72 l-2.46 0 l0 6.72 l-1.32 0 l0 -14.16 l3.82 0 z M343.20400000000006 15.04 l6.5 0 l-3.2 -7.76 z M347.244 5.84 l5.96 14.16 l-1.48 0 l-1.54 -3.76 l-7.5 0 l-1.6 3.76 l-1.38 0 l6.18 -14.16 l1.36 0 z M374.76800000000003 5.84 l0 1.2 l-4.84 0 l0 12.96 l-1.32 0 l0 -12.96 l-4.84 0 l0 -1.2 l11 0 z M388.492 5.84 l0 6.24 l7.92 0 l0 -6.24 l1.32 0 l0 14.16 l-1.32 0 l0 -6.72 l-7.92 0 l0 6.72 l-1.32 0 l0 -14.16 l1.32 0 z M412.236 12.92 q0 2.7 1.66 4.45 t4.34 1.79 q2.7 0 4.34 -1.77 t1.66 -4.47 q0 -2.74 -1.64 -4.47 t-4.38 -1.77 q-2.68 0 -4.32 1.76 t-1.66 4.48 z M418.236 5.48 q2.16 0 3.82 0.95 t2.57 2.66 t0.93 3.83 q0 3.26 -2.06 5.33 t-5.26 2.11 q-3.22 0 -5.24 -2.09 t-2.08 -5.35 q0.02 -3.26 2.04 -5.32 t5.28 -2.12 z M440.44 5.84 l8.62 12.4 l0.04 0 l0 -12.4 l1.32 0 l0 14.16 l-1.7 0 l-8.62 -12.4 l-0.04 0 l0 12.4 l-1.32 0 l0 -14.16 l1.7 0 z M466.30400000000003 18.2 l-1.54 4.56 l-1.18 0 l1.32 -4.56 l1.4 0 z M497.07199999999995 5.84 l8.62 12.4 l0.04 0 l0 -12.4 l1.32 0 l0 14.16 l-1.7 0 l-8.62 -12.4 l-0.04 0 l0 12.4 l-1.32 0 l0 -14.16 l1.7 0 z M521.556 12.92 q0 2.7 1.66 4.45 t4.34 1.79 q2.7 0 4.34 -1.77 t1.66 -4.47 q0 -2.74 -1.64 -4.47 t-4.38 -1.77 q-2.68 0 -4.32 1.76 t-1.66 4.48 z M527.556 5.48 q2.16 0 3.82 0.95 t2.57 2.66 t0.93 3.83 q0 3.26 -2.06 5.33 t-5.26 2.11 q-3.22 0 -5.24 -2.09 t-2.08 -5.35 q0.02 -3.26 2.04 -5.32 t5.28 -2.12 z M557.36 5.84 l0 1.2 l-4.84 0 l0 12.96 l-1.32 0 l0 -12.96 l-4.84 0 l0 -1.2 l11 0 z M586.848 15.04 l6.5 0 l-3.2 -7.76 z M590.8879999999999 5.84 l5.96 14.16 l-1.48 0 l-1.54 -3.76 l-7.5 0 l-1.6 3.76 l-1.38 0 l6.18 -14.16 l1.36 0 z M628.5759999999999 5.48 q2.46 0 3.86 1.78 l-1.14 0.82 q-1.04 -1.4 -2.76 -1.4 q-1.4 0 -2.27 0.72 t-0.91 1.96 q0 1.08 0.66 1.75 t2.3 1.13 q2.16 0.64 2.88 1.13 t1.09 1.21 t0.37 1.8 q0 1.72 -1.23 2.83 t-3.17 1.15 q-3.06 0 -4.6 -2.14 l1.26 -0.84 q1.06 1.76 3.24 1.78 q1.42 0 2.3 -0.79 t0.88 -1.99 q0 -0.7 -0.25 -1.15 t-0.76 -0.78 t-1.3 -0.6 t-1.85 -0.63 q-1.6 -0.52 -2.37 -1.46 t-0.77 -2.4 q0 -1.72 1.29 -2.8 t3.25 -1.08 z M650.26 12.08 q1.28 0 2.1 -0.63 t0.84 -1.87 q0 -1.16 -0.82 -1.85 t-2.18 -0.69 l-3 0 l0 5.04 l3.06 0 z M649.92 5.84 q2.16 0 3.36 0.96 t1.24 2.78 q0 1.7 -1.16 2.69 t-3.02 1.01 l-3.14 0 l0 6.72 l-1.32 0 l0 -14.16 l4.04 0 z M671.8039999999999 12.08 q1.54 0 2.38 -0.69 t0.84 -1.83 t-0.82 -1.82 t-2.44 -0.7 l-2.86 0 l0 5.04 l2.9 0 z M671.4039999999999 5.84 q4.9 0 4.94 3.72 q0 3.14 -3.62 3.64 l4.12 6.8 l-1.5 0 l-3.98 -6.72 l-2.46 0 l0 6.72 l-1.32 0 l0 -14.16 l3.82 0 z M690.9879999999998 5.84 l0 14.16 l-1.32 0 l0 -14.16 l1.32 0 z M706.7919999999998 5.84 l8.62 12.4 l0.04 0 l0 -12.4 l1.32 0 l0 14.16 l-1.7 0 l-8.62 -12.4 l-0.04 0 l0 12.4 l-1.32 0 l0 -14.16 l1.7 0 z M740.1759999999998 5.84 l0 1.2 l-4.84 0 l0 12.96 l-1.32 0 l0 -12.96 l-4.84 0 l0 -1.2 l11 0 z"/></g>
			</g>
		</svg>
	